<svg width="261" height="801" viewBox="0 0 261 801" fill="none" xmlns="http://www.w3.org/2000/svg">
<path d="M236.63 655.061C240.816 658.506 244.955 662.151 249.467 665.133C244.165 666.458 238.769 659.036 233.56 656.783C231.653 657.976 229.885 659.301 227.746 660.163C231.653 665.265 237.141 667.982 242.025 671.627C232.862 672.024 226.118 656.518 216.072 664.338C219.653 668.38 225.281 672.157 228.258 675.404C223.281 676.861 218.072 666.458 212.304 665.597C207.932 664.934 203.932 668.711 198.49 668.512C202.397 669.506 205.699 676.199 210.258 677.126C214.49 677.988 219.141 675.404 221.513 680.837C217.699 679.048 214.49 679.379 209.653 679.644C211.42 682.03 213.234 684.482 214.769 687.199C220.816 688.126 227.56 687.927 230.63 693.56C226.351 692.301 222.676 690.048 217.327 690.512C217.932 692.632 220.63 696.078 221.792 699.126C226.537 700.054 231.606 700.451 234.49 704.228C231.839 704.758 228.118 702.373 224.676 702.373C224.63 704.957 227.188 707.74 228.723 709.529C232.537 709.596 237.467 708.005 239.885 710.258C238.583 711.517 233.374 711.915 231.234 711.849C232.118 714.3 233.792 715.493 234.909 717.547C232.351 718.674 229.885 715.427 228.165 713.505C227.467 715.758 228.165 719.8 227.42 721.987C225.746 716.156 226.63 707.542 222.351 704.957C221.839 709.331 221.932 714.499 222.118 719.8C219.188 716.355 221.188 706.746 219.792 701.114C218.769 697.006 216.258 695.813 215.327 692.5C214.165 698.463 214.909 705.752 214.537 710.855C212.072 706.879 213.048 695.945 213.513 690.114C211.699 686.536 209.839 683.09 207.281 680.638C207.467 686.602 206.769 690.512 207.141 697.469C203.653 693.229 206.537 682.759 204.769 677.789C203.374 673.946 200.955 674.608 198.351 672.289C199.467 676.398 200.351 683.554 199.234 688.06C197.002 683.554 198.165 673.747 195.188 670.5C182.909 671.759 172.909 671.825 163.978 673.084C165.467 675.205 166.816 677.988 169.048 679.711C174.258 683.62 183.653 680.572 188.676 684.879C187.606 686.47 186.025 684.482 184.49 684.15C180.862 683.421 176.165 684.415 172.304 682.958C173.653 685.94 174.769 690.777 177.839 692.5C182.955 695.349 192.444 689.319 193.699 698.861C190.072 693.427 183.327 695.15 179.327 694.885C180.816 699.126 183.095 702.174 184.909 705.885C189.653 708.668 198.955 704.361 202.723 708.668C201.746 710.921 200.769 708.535 199.234 708.403C195.327 708.005 190.072 710.391 186.397 708.734C186.676 712.114 188.444 713.108 188.723 716.487C193.839 716.752 201.141 717.746 205.56 720.794C201.002 721.589 196.165 718.21 190.583 719.336C190.63 721.391 192.49 725.035 193.281 727.553C200.769 729.674 208.63 731.264 211.792 740.21C206.769 734.842 201.327 730.999 194.769 730.469C195.792 734.908 198.118 737.294 199.281 741.535C205.978 743.722 212.816 745.643 216.351 752.8C212.165 749.354 207.699 746.24 201.839 745.312C202.351 748.294 205.606 751.541 206.676 755.384C202.397 753.595 201.374 746.703 198.258 743.059C197.374 748.625 196.955 755.185 198.49 760.354C194.165 756.908 196.118 745.974 196.769 740.143C195.746 736.698 194.351 733.914 192.676 731.529C190.258 736.764 190.351 746.438 191.374 755.384C188.769 753.992 188.816 748.227 188.909 744.185C189.048 738.42 190.258 731.33 191.885 728.613C190.258 724.77 188.769 720.662 187.002 717.083C185.095 724.174 183.56 735.969 184.769 743.987C180.118 737.824 184.397 722.848 185.513 714.234C184.165 710.788 182.351 708.072 181.048 704.626C177.467 709.927 177.56 724.041 178.397 729.541C173.653 722.517 177.606 708.734 179.234 701.246C177.095 696.939 174.49 693.427 172.258 689.319C170.258 697.072 171.513 709.861 171.746 716.62C169.048 713.373 169.42 705.819 169.42 698.927C169.467 689.584 171.281 682.958 165.002 680.373C164.769 690.578 164.444 694.753 165.048 703.168C160.351 692.5 167.048 675.536 156.769 673.018C151.653 671.759 144.351 675.139 137.327 673.813C138.955 686.271 155.002 677.458 159.002 687.729C154.49 683.488 148.211 683.819 141.839 683.421C142.583 686.735 143.048 688.192 144.165 690.18C148.955 692.765 157.141 689.982 159.653 696.078C155.467 693.162 150.165 694.753 144.63 693.626C144.909 707.608 156.63 701.18 162.723 705.289C162.025 707.144 160.537 705.156 159.234 705.023C154.723 706.084 151.095 707.011 147.792 705.289C149.234 714.433 155.048 718.077 162.165 719.204C164.304 719.535 167.095 718.077 168.816 720.728C163.188 721.987 156.537 720.463 151.327 716.951C152.258 732.457 162.304 733.716 172.444 734.842C168.304 736.565 159.978 736.167 155.699 732.987C156.351 736.499 157.42 739.282 158.444 742.197C159.978 742.595 160.723 744.715 162.723 745.378C166.49 746.703 172.118 743.854 173.606 749.089C169.141 746.902 164.909 749.752 160.676 746.968C162.63 761.083 179.699 754.257 182.816 764.793C178.118 760.155 170.862 760.552 165.56 758.034C170.397 767.311 176.723 774.203 181.002 784.275C175.188 777.118 170.258 768.504 163.932 762.143C162.862 768.835 164.025 774.335 164.862 779.902C158.258 774.137 166.072 757.041 160.118 751.474C157.932 755.848 156.816 763.203 157.234 769.498C153.467 763.601 157.56 753.86 158.63 748.095C157.42 745.312 156.304 742.396 154.862 739.944C152.537 744.981 151.327 751.474 150.955 759.028C147.746 753.727 152.025 742.396 153.699 736.565C152.351 733.318 151.048 730.005 150.211 725.897C147.653 730.469 145.374 735.372 145.188 743.059C142.165 737.957 146.072 730.137 147.792 726.559C149.095 720.463 146.955 715.162 145.513 710.391C143.606 716.288 140.63 723.312 137.699 726.294C140.351 716.156 147.839 706.548 141.188 694.885C139.095 700.849 137.606 707.608 135.56 713.571C134.118 706.084 138.909 698.728 139.699 690.976C138.63 688.192 137.56 685.277 136.304 682.759C133.885 686.668 134.025 693.957 133.048 699.789C129.746 690.18 137.978 677.922 130.444 673.217C121.885 673.88 112.862 671.892 104.676 671.958C104.769 673.548 107.141 676.066 107.327 679.181C112.118 682.958 118.862 683.687 124.583 685.939C119.932 687.861 114.537 684.548 109.188 683.488C109.699 686.47 110.583 688.921 111.513 691.241C114.955 697.469 125.746 692.235 128.165 700.054C125.002 696.012 117.699 698.463 113.42 696.078C115.374 712.445 131.234 707.011 136.072 718.873C130.816 713.571 123.606 711.385 116.955 708.27C117.467 711.782 118.397 713.77 119.002 718.011C126.165 720.993 133.188 724.174 138.165 730.601C132.909 728.812 127.234 723.113 120.49 721.854C120.723 724.77 122.955 729.143 123.653 733.053C130.304 736.167 138.211 737.36 141.467 745.776C136.49 740.673 131.56 738.487 124.816 736.499C125.699 740.806 126.862 744.715 127.978 748.691C134.118 749.288 141.653 752.137 144.769 759.227C140.258 755.583 135.281 752.601 128.862 751.872C128.909 754.589 131.141 758.366 131.978 761.546C136.955 764.064 145.746 764.992 148.583 770.36C143.234 768.239 139.467 766.98 133.839 765.39C135.281 770.426 137.281 774.6 139.141 778.908C145.048 784.01 155.002 782.883 158.351 792.028C154.118 787.191 147.653 785.932 142.072 783.215C143.002 787.257 148.072 791.763 149.095 795.606C145.978 795.275 144.072 788.516 141.141 786.197C139.467 791.431 138.118 797.13 135.374 800.973C134.676 796.865 138.63 790.769 139.374 785.335C138.769 781.426 136.258 780.498 134.63 778.245C131.467 782.95 130.072 792.492 125.746 794.214C127.374 790.437 129.281 785.136 131.188 780.498C132.211 778.046 134.211 776.257 134.072 773.341C133.932 769.631 131.188 768.372 130.63 763.667C127.513 767.51 126.583 774.203 124.537 779.438C122.909 774.269 127.002 766.516 129.141 760.818C128.025 756.312 126.304 752.8 125.234 748.227C121.327 754.522 120.397 764.661 117.327 772.016C118.025 760.95 120.63 752.336 124.444 745.312C123.327 742.264 122.072 739.282 121.327 735.637C116.955 740.408 115.281 748.625 112.583 755.516C111.885 747.3 117.188 738.818 120.165 732.258C119.327 728.216 118.072 724.836 117.327 720.529C113.234 724.505 109.932 736.167 107.606 742.462C106.723 742.661 107.095 740.408 107.141 739.547C107.746 731.661 113.978 724.041 115.792 716.686C115.467 713.903 114.258 712.511 113.839 709.861C110.304 715.029 108.072 721.987 105.42 728.282C104.118 721.921 110.676 713.041 112.723 707.011C112.072 703.698 110.769 701.445 110.025 698.265C106.537 703.367 105.792 711.981 100.49 714.764C103.327 708.469 106.444 702.572 108.537 695.415C107.699 691.704 105.932 689.451 105.095 685.741C101.978 691.042 99.8855 700.054 94.8157 701.313C97.6994 695.018 106.072 686.801 101.374 678.12C98.5831 684.482 94.6297 689.253 90.7692 694.156C92.025 685.807 98.4901 684.283 99.5599 675.735C97.6529 672.09 95.1413 675.867 92.2576 676.199C90.6762 675.602 93.6994 673.482 94.211 672.62C82.1645 669.506 71.0017 671.627 57.4203 674.542C60.9087 682.494 76.4436 672.952 80.9087 680.903C79.4203 682.825 77.6529 680.108 75.3273 679.777C70.9552 679.181 65.5599 681.897 61.4669 680.705C61.4204 687.199 71.4669 685.542 71.3738 685.476C76.8157 686.271 82.2576 688.723 85.8855 693.427C81.1878 689.319 71.2808 689.319 64.4901 687.927C65.0017 690.048 66.118 691.307 66.7692 693.229C75.0483 696.343 85.2343 696.608 89.7924 705.554C84.3971 699.391 75.4203 698.728 68.3041 696.608C70.3041 713.903 85.932 709.861 92.7227 719.734C86.6296 715.427 78.3971 714.433 72.5831 709.662C72.4436 711.12 73.932 714.433 74.5366 716.487C77.2343 721.192 80.8157 723.842 85.2808 726.692C89.2808 729.21 94.4901 729.409 95.6529 735.902C90.1645 730.336 82.5831 727.951 76.4436 723.312C76.8622 727.354 78.3971 729.607 78.8622 733.583C87.932 736.565 95.8389 745.842 101.141 756.378C96.3041 751.938 91.6064 743.854 85.6064 739.083C83.9785 737.758 81.932 737.625 80.3041 736.432C80.211 738.487 81.7924 742.462 82.6762 744.715C88.9087 749.553 95.0017 754.522 98.2576 763.998C93.2808 759.161 89.5134 752.402 83.839 748.625C87.0017 760.287 92.3041 768.703 96.3041 778.974C92.6762 776.522 91.2343 770.625 88.5831 766.582C86.4436 769.299 87.9785 778.245 87.6994 782.022C83.9785 776.853 88.1645 764.727 85.2343 759.426C82.6297 763.733 81.2343 769.697 80.9552 777.052C77.5134 770.89 82.211 761.281 84.0715 756.047C83.5134 753.794 82.5366 752.203 82.118 749.751C78.0715 754.125 77.3738 762.872 74.7692 769.034C74.1645 760.022 77.7459 752.468 81.0017 746.836C80.025 743.854 79.0948 740.872 78.2576 737.625C74.3041 742.595 73.1413 751.209 70.211 757.504C69.4668 748.956 76.4436 735.969 77.5134 736.234C76.8622 732.39 75.2343 730.137 74.7227 726.029C71.0483 730.005 66.8622 737.294 64.9087 744.981C63.2808 735.571 70.4901 729.541 73.2343 722.65C72.6761 719.204 71.2343 717.15 70.5366 713.903C66.025 719.403 62.5831 728.812 56.8622 731.131C60.8622 724.174 66.3041 719.071 69.0483 710.523C68.6296 707.011 66.6762 705.885 66.3506 702.307C62.5831 708.005 55.4669 722.252 55.2343 723.842C53.9785 719.138 57.3738 714.698 59.3273 711.186C61.5599 707.144 63.3738 703.367 64.8157 698.927C63.6529 695.945 62.4436 692.963 61.0483 690.247C58.1645 695.747 56.025 704.825 56.1645 711.385C52.3041 704.957 57.8389 693.295 59.5599 687.861C59.0483 685.873 57.8389 685.012 57.0017 683.554C54.025 689.783 50.7692 695.68 50.0715 704.825C46.5366 696.409 53.9785 688.855 54.8622 681.235C54.5366 680.373 54.025 679.777 53.4203 679.379C50.7227 682.494 49.5134 687.596 46.4901 690.247C46.0715 685.476 50.118 682.759 50.9552 678.054C46.211 676.132 41.5599 684.084 37.2808 685.873C33.1878 691.174 29.5599 710.656 24.025 734.776C23.3273 733.649 22.6296 732.523 21.932 731.396C21.3273 729.674 20.6761 727.951 20.0715 726.162C21.0482 726.162 20.9087 726.625 21.8855 726.029C22.5831 726.36 21.8855 728.812 22.6762 728.945C24.5366 725.698 21.4203 719.601 23.0017 717.017C24.9087 716.62 23.6529 719.601 24.8157 719.403C24.9087 715.758 24.025 713.704 24.1645 710.06C24.9552 708.867 26.304 708.403 25.7459 705.487C25.0948 703.963 24.3971 705.752 23.6529 704.626C23.7924 701.975 25.3273 699.391 23.7459 697.204C26.4901 697.602 24.211 691.506 27.4203 692.5C27.6064 694.488 26.7227 695.018 26.8622 697.006C27.5134 695.481 28.8622 692.831 29.932 695.813C29.6064 694.09 30.6296 693.361 29.8389 692.367C29.4669 691.174 27.3273 692.831 27.6994 690.512C29.4203 689.253 31.0483 688.59 32.1645 688.259C31.3738 686.933 28.211 689.253 28.3041 686.536C29.0482 685.277 31.1413 685.807 32.0715 684.813C31.0017 684.879 30.3041 684.482 29.932 683.488C31.2343 681.434 33.6529 683.885 34.3506 680.705C33.1878 680.97 32.3506 680.705 32.5366 678.849C33.8855 677.458 35.8855 679.843 36.3041 677.126C35.4203 676.729 33.8855 677.391 33.8389 675.801C36.6297 673.88 41.3738 675.205 45.6529 675.006C45.5599 673.747 44.9552 673.482 45.932 673.018C54.8157 673.084 62.1645 665.795 74.2576 667.187C77.2808 667.121 74.9552 666.259 73.1878 666.789L67.9785 667.121C62.3971 667.386 54.5366 668.446 47.932 670.434C44.7227 671.361 40.211 674.94 37.8389 670.633C38.8622 668.843 38.8622 664.669 39.6529 662.615C41.0948 662.416 40.1645 664.47 40.7692 664.536C41.0483 663.145 41.5134 662.018 41.6994 660.494C45.2808 656.32 48.5366 649.892 52.6296 643.928C56.5831 638.163 59.6529 631.338 62.8157 626.435C63.4669 625.374 66.211 621.862 66.8157 621.73C67.1878 621.664 67.6529 622.856 67.8855 622.658C69.6064 621.2 71.4669 616.164 73.839 613.314C76.5366 610.067 79.6064 606.025 81.5134 602.911C84.6762 597.61 87.7924 592.773 91.4669 587.869C101.606 574.153 110.304 559.177 118.862 543.472C123.513 534.991 128.769 527.105 132.63 518.292C138.118 505.768 140.769 488.739 141.188 471.179C141.653 449.974 141.746 435.926 140.025 413.794C137.002 374.831 128.165 344.88 117.374 316.254C119.234 321.886 119.932 328.645 121.467 334.808C122.769 340.175 124.862 344.814 126.118 349.386C135.606 383.445 140.537 424.662 138.955 464.95C138.351 479.992 137.467 495.895 134.118 507.889C133.002 511.865 130.537 516.238 128.63 520.611C126.769 524.985 124.862 529.623 122.769 533.4C108.444 559.376 92.4901 581.177 76.4436 604.833C61.0948 627.429 45.4203 650.157 29.932 671.295C29.3273 672.223 30.3971 672.687 29.6529 673.813C28.1645 672.024 28.9552 676.066 27.2808 675.47C26.1645 673.747 29.1878 671.229 27.4668 670.036C26.9087 671.03 27.1413 673.084 25.8389 673.084C24.4901 669.572 28.5831 667.054 27.6064 664.072C27.3273 662.813 26.0715 665.928 25.8389 663.675C25.7459 660.163 29.0017 658.308 27.3273 655.657C26.7692 654.067 25.932 657.711 25.5599 655.259C25.6064 652.344 27.1878 651.416 27.4203 648.699C27.1413 646.91 26.3506 645.85 25.8855 644.326C26.1645 642.139 26.8157 640.483 27.4203 638.76C26.8622 636.639 25.1413 633.724 25.7924 631.404C26.118 631.404 26.211 631.007 26.4901 630.874C27.9785 631.669 27.2808 635.91 28.7692 636.639C29.2343 631.868 24.8157 627.627 25.5134 622.459C25.8389 622.459 25.932 622.061 26.211 621.929C27.6064 624.049 27.9785 627.826 29.2808 630.145C28.211 623.718 26.2575 620.338 24.5831 614.11C25.0948 613.845 25.4204 613.314 25.932 613.049C27.3738 616.164 28.1645 620.338 29.4204 623.718C29.1878 615.899 25.7924 608.676 23.8389 601.785C23.8855 600.393 25.0948 600.592 25.5134 599.664C25.1878 595.622 21.0017 590.586 23.3738 587.405C25.3738 590.453 26.025 598.471 27.6064 600.526C26.6296 595.092 25.0483 590.652 23.9785 585.417C23.1413 585.55 22.3041 585.616 22.2111 584.556C19.6529 555.334 18.3041 530.352 15.0948 505.304C14.5832 505.238 13.839 505.57 13.6994 504.907C13.0017 494.238 12.6762 479.13 11.6529 463.956C11.6064 463.161 10.6762 463.757 10.5831 463.028C10.7227 459.848 10.025 458.058 9.9785 455.143C11.6994 452.824 10.8157 444.739 9.88546 441.758C10.4901 426.848 8.16453 411.077 7.69941 395.837C7.42035 386.427 5.09477 375.494 7.2343 370.59C6.76919 356.874 6.25757 352.898 6.25757 340.904C6.25757 326.194 5.69943 308.766 6.3971 291.869C6.67618 284.646 7.83898 267.881 9.04826 266.954C10.2576 266.026 9.18778 269.339 10.0715 266.887C11.0482 264.171 10.5831 258.671 11.7924 255.888C9.93198 256.617 11.6529 261.984 8.86221 261.52C9.88547 254.96 9.60639 246.677 12.3971 242.436C13.0483 242.502 12.5831 246.942 13.1878 245.352C13.3738 242.436 13.7459 239.786 14.3041 237.334C13.4669 237.466 12.6297 237.533 12.5366 236.472C15.1878 212.485 22.7227 194.793 28.2576 174.516C28.6762 173.787 29.8855 174.118 30.3041 173.389C30.7692 166.167 34.1645 159.341 36.211 152.715C38.5831 154.239 38.9087 149.336 40.211 148.01C40.025 146.287 38.6762 147.149 39.4204 145.095C39.5599 143.438 41.0483 145.294 41.5134 144.962C42.5366 144.233 42.118 141.715 43.4204 139.396C44.0715 138.203 44.7692 139.33 45.1413 138.27C45.6529 136.679 45.1878 134.426 45.6529 133.3C46.2576 133.234 46.7227 133.366 47.0483 133.697C47.1413 131.312 47.2808 128.926 48.5832 128.131C49.2343 129.059 48.5832 130.914 48.3506 132.107C52.025 125.547 60.5366 122.698 59.8855 112.029C59.3273 114.945 59.0948 118.258 57.3738 119.65C56.7692 116.8 58.9087 115.077 57.839 113.156C57.0483 115.939 56.7227 121.77 55.0018 121.77C55.1413 119.252 55.7459 117.396 56.1646 115.276C53.7459 116.999 54.9087 125.945 52.3506 125.945C52.3041 123.625 53.8855 120.975 52.8157 118.987C50.7692 120.577 52.4901 125.481 50.3041 127.601C49.6064 127.137 50.9087 124.023 49.7925 123.161C31.1413 152.119 20.4901 191.479 10.2111 231.304L10.3041 234.286C2.39708 268.412 1.65291 309.893 1.69942 343.82C1.74592 366.283 3.9785 390.138 3.9785 413.993C3.9785 432.414 5.00175 451.697 6.49012 469.787C8.21105 490.925 11.0948 512.991 13.0483 532.738C15.1878 553.81 16.4901 574.418 17.8855 595.357C19.2808 616.628 23.3273 639.687 22.118 660.958C21.7924 666.524 21.1413 671.958 20.9087 677.391C20.2576 692.036 18.5366 704.029 16.3506 716.09C15.9785 714.963 15.5599 713.837 15.1878 712.71C15.1413 712.644 15.0947 712.511 15.0482 712.445C17.4668 698.795 18.9552 685.012 19.2343 668.512C19.4668 654.928 19.1878 640.085 18.5366 626.435C17.8855 612.652 15.4204 597.544 14.3041 582.634C13.4204 570.641 13.3738 558.713 12.118 548.111C10.4436 533.93 9.69941 519.551 7.93197 505.304C5.79244 487.943 3.74595 468.462 3.69941 450.571C3.6529 429.896 1.32731 413.529 0.490125 395.307C-0.300585 377.747 0.164534 356.476 0.0250081 338.85C-0.207565 311.085 1.18779 286.833 4.07152 260.791C6.07152 242.9 10.025 226.069 13.839 209.106C17.4669 192.937 22.3506 177.1 27.6064 162.655C37.0017 136.944 48.2111 116.403 64.5366 100.764C59.3273 99.2403 59.6994 88.9031 56.025 84.9935C55.6994 82.6743 56.3971 81.6803 56.9087 80.4875C52.8622 81.2827 52.5832 75.1865 51.6529 68.9578C51.1413 65.3132 49.6064 62.7289 49.6064 60.1446C49.7459 48.0846 68.118 44.5727 77.8855 42.4522C69.932 39.5366 64.2576 41.8558 54.9087 40.9944C50.6762 34.368 55.6064 24.6935 58.3971 19.9888C65.3273 20.7177 70.9552 20.3201 76.9087 22.7056C74.8622 19.2599 66.2111 18.9948 67.7925 9.91668C69.6064 7.86248 71.4204 6.53722 72.118 4.15172C79.5134 -1.48066 85.1413 6.6035 90.7227 9.85039C90.4901 7.39867 88.4901 5.60955 89.1413 3.48913C92.9087 -2.67341 101.281 0.175893 104.165 5.47704C108.583 -1.61317 120.118 1.43493 120.072 13.3624C126.955 8.39263 139.095 3.48907 145.42 12.1697C152.258 21.6454 145.56 44.2413 142.444 49.0123C144.258 49.2773 146.025 49.6086 147.374 50.6689C148.909 55.4399 152.304 69.7529 147.002 71.4757C152.304 76.1804 151.048 82.8731 147.979 90.2284C146.955 92.6802 144.955 98.7764 143.42 98.9752C139.606 99.439 137.699 84.5959 135.885 81.6141C138.165 94.1379 141.234 112.427 136.537 123.161C133.653 129.788 127.141 129.258 120.816 131.643C119.885 129.987 118.676 128.728 118.862 125.348C116.258 129.523 115.374 141.053 108.537 139.926C106.816 139.595 105.839 137.209 103.188 135.818C99.5599 133.896 95.0018 135.553 94.3041 130.45C93.7925 126.607 97.7925 119.649 99.4204 116.27C105.327 103.945 112.118 88.2405 115.095 74.5901C111.141 83.6683 104.769 97.2524 98.118 108.385C94.8622 113.885 91.0483 119.915 87.4669 123.427C85.4204 125.414 82.9087 127.137 80.6297 126.872C77.7459 126.541 76.3041 122.234 73.7459 118.39C72.118 115.939 70.4901 115.74 70.0715 111.698C39.5134 136.083 26.5366 183.263 16.3506 234.153C9.55988 270.333 8.0715 303.796 8.0715 343.157C8.11802 376.156 11.0948 411.74 12.8157 445.402C13.4203 457.197 13.5134 468.197 14.6297 479.462C16.0715 494.106 18.9087 508.088 20.5366 522.136C26.1645 570.044 32.8622 618.682 31.7924 664.536C35.7924 661.952 38.025 653.006 42.7692 649.958C47.0017 642.537 51.8389 635.844 57.0483 629.682C68.8157 609.14 121.281 537.244 121.792 526.31C122.211 517.431 114.769 506.166 116.955 495.895C122.258 500.6 123.792 510.871 124.723 521.142C134.304 502.588 136.49 472.04 136.723 441.559C136.769 434.734 136.63 428.107 136.072 421.812C132.072 377.283 121.002 333.35 107.188 303.399C106.165 305.32 107.467 312.344 105.839 315.856C99.932 320.893 94.5366 323.145 91.1878 313.869C88.7692 307.242 87.932 295.513 86.9087 289.417C85.5599 301.08 87.0948 314.465 83.1413 323.344C79.3273 324.736 76.3506 323.941 72.7227 323.543C67.7924 306.248 69.5134 285.839 71.5599 266.689C67.6064 283.056 68.5831 305.32 65.0483 322.615C58.025 324.338 52.7692 318.971 53.7459 306.513C48.7692 305.983 47.0948 300.284 43.6994 297.303C45.2343 281.731 50.3041 267.285 56.6297 256.815C59.839 251.514 62.3506 246.81 67.6994 244.689C65.1878 230.973 57.9785 192.208 66.025 183.395C69.6529 179.419 76.3506 183.263 79.3739 186.973C85.4669 194.594 95.7925 210.365 98.9087 220.834C99.5134 222.756 99.7925 223.684 99.4204 225.738C109.374 221.431 127.885 226.069 135.467 233.226C137.048 234.75 140.072 238.46 140.211 240.316C140.49 244.358 136.862 245.882 136.351 249.99C135.374 250.719 133.932 250.785 132.862 250.189C136.165 253.966 140.676 258.34 140.676 265.496C139.095 268.478 137.839 270.731 136.118 274.707C132.816 282.327 127.234 271.592 123.746 268.61C125.327 272.719 128.862 278.285 130.49 283.984C130.211 289.815 127.792 292.797 123.141 292.863C116.816 302.471 112.816 293.989 109.839 285.441C123.327 325.332 137.746 367.343 141.234 421.415C141.699 428.306 142.583 432.083 142.118 438.179C144.862 438.776 146.397 444.739 149.699 446.131C149.746 441.691 149.234 439.306 149.699 435.728C147.467 432.878 142.955 428.505 144.072 423.734C145.978 426.119 146.816 430.161 149.188 431.818C151.839 424.33 150.769 420.752 147.932 414.589C146.862 412.204 145.095 410.216 144.583 407.897C148.165 408.559 148.862 413.662 150.769 416.909C152.258 411.077 152.816 404.12 156.537 401.204C155.513 405.379 154.583 409.752 153.839 414.258C158.723 414.722 163.281 409.222 167.467 405.909C167.932 407.897 165.746 410.216 164.537 411.541C161.792 414.589 158.351 416.644 153.606 417.704C153.048 419.824 152.955 422.541 152.816 425.192C157.467 426.517 163.048 420.487 166.165 418.366C163.746 424.396 158.955 427.312 152.955 428.637C152.304 430.294 152.909 433.673 152.862 436.059C157.467 435.065 161.839 432.812 164.909 432.282C161.839 435.86 156.909 437.053 152.955 439.505C153.234 442.42 153.746 444.872 153.932 447.854C158.397 445.27 161.234 443.215 166.583 441.559C163.467 445.866 157.885 446.992 154.723 451.233C155.281 453.089 155.141 456.137 155.653 458.125C159.234 456.468 162.769 452.294 165.885 451.498C163.792 456.203 159.374 457.86 156.49 461.504C156.583 464.619 157.792 466.076 157.467 469.853C161.56 466.606 165.42 463.161 170.397 461.04C167.327 466.341 161.699 468.396 157.932 472.769C157.792 476.811 158.63 479.263 158.955 482.576C164.723 477.01 174.909 467.203 179.699 458.39C180.583 456.733 182.351 452.028 181.141 449.378C179.653 446.529 175.374 448.053 174.025 444.872C177.002 444.408 179.513 444.607 181.374 445.866C180.769 436.987 172.769 439.571 169.885 434.27C172.072 433.276 177.048 436.456 180.072 437.583C180.304 434.601 179.42 432.481 178.816 431.222C177.095 426.649 170.63 429.499 169.56 423.933C172.072 424.86 175.002 425.125 177.606 425.854C178.118 424.993 176.909 422.475 176.769 420.951C176.63 419.891 176.165 419.493 175.653 418.366C175.979 415.12 173.327 418.698 172.769 415.782C173.746 415.053 173.653 415.65 175.188 415.65C173.513 410.481 172.816 403.788 170.165 400.144C165.885 399.349 162.211 397.692 160.862 392.325C164.165 393.716 166.118 397.295 170.397 397.162C169.141 389.608 163.839 388.349 162.211 381.391C165.932 381.458 165.792 387.62 168.723 388.879C169.467 386.692 169.141 383.114 170.955 382.319C170.909 385.566 170.444 386.295 170.49 388.813C174.118 388.018 172.397 376.223 176.258 374.036C175.188 381.06 174.537 388.548 171.653 393.186C172.49 397.56 173.188 402.264 174.49 405.843C178.769 402.596 175.42 389.409 180.118 386.626C177.979 393.65 179.792 404.517 175.281 409.222C176.025 411.541 176.676 413.993 177.281 416.511C181.56 413.861 180.676 404.517 184.444 401.204C182.909 408.824 181.979 414.656 178.444 419.957C178.723 423.336 179.885 425.324 180.118 428.77C184.072 426.318 186.025 421.282 187.699 415.915C188.955 422.276 184.211 429.035 180.955 432.679C181.467 435.197 182.165 437.384 182.583 439.968C185.467 437.583 188.351 431.023 192.304 428.439C190.444 436.324 182.118 439.703 184.304 449.775C188.723 443.017 193.42 436.655 196.816 428.637C198.165 419.957 193.699 419.029 191.467 414.656C193.281 413.33 194.769 416.644 196.444 417.306C196.723 408.162 189.141 411.409 187.048 406.041C189.374 405.776 193.281 406.837 195.141 408.957C194.723 405.776 193.885 403.258 193.141 400.674C190.769 398.289 186.351 399.216 185.653 394.246C187.979 394.445 190.258 396.764 191.653 396.831C191.653 388.018 182.072 386.891 181.653 378.674C184.537 380.265 185.746 384.439 188.49 386.162C187.095 382.054 187.374 379.47 187.095 375.361C189.374 377.946 190.723 384.307 192.397 389.343C193.792 385.5 194.304 380.464 195.095 375.759C195.746 375.693 196.537 380.662 193.42 391.132C192.537 394.114 195.095 398.951 195.932 401.469C198.583 397.228 200.63 390.602 200.583 384.307C202.444 386.03 201.979 390.668 201.56 393.186C200.862 397.295 197.839 402.198 196.723 404.915C197.699 407.367 197.606 411.475 198.072 414.722C199.048 414.656 200.397 413.397 201.095 412.071C202.444 409.421 201.792 404.385 203.932 402.993C206.211 407.963 201.699 415.716 198.862 418.698C199.188 421.481 199.885 423.668 199.839 427.047C202.909 421.746 209.606 412.668 208.397 401.734C207.792 396.102 205.095 392.855 204.118 387.156C208.211 388.548 208.025 396.632 210.118 401.138C217.281 391.463 204.955 383.777 205.42 373.705C207.002 374.036 207.327 378.012 208.444 380.464C209.606 382.982 211.002 385.301 212.49 386.626C212.769 388.283 213.653 388.945 214.025 390.469C215.188 387.355 217.048 385.831 215.839 381.458C214.304 375.958 208.537 368.669 211.792 364.362C213.42 368.337 214.397 376.62 217.513 379.801C219.188 376.753 217.885 369.861 220.955 368.669C221.699 369.53 220.909 375.693 220.258 379.138C222.816 380.729 224.258 376.819 226.444 376.223C226.816 380.199 222.816 382.12 219.374 382.65C218.258 384.97 217.979 388.415 217.234 391.198C222.676 390.734 226.118 387.62 229.188 383.976C229.095 390.006 222.583 392.59 217.002 393.849C215.374 396.168 214.955 400.011 213.839 402.993C220.072 402.463 225.281 400.475 229.653 397.493C226.676 405.578 217.792 403.06 212.258 407.565C210.862 410.216 209.792 413.198 208.723 416.246C211.885 414.059 215.979 412.999 220.444 412.469C215.979 416.909 207.885 419.891 207.327 419.957C205.932 423.668 201.002 431.42 199.281 434.734C211.095 434.932 213.002 418.168 225.513 417.638C223.188 419.957 220.351 420.487 218.025 422.607C215.746 424.662 210.258 432.878 208.63 433.607C209.56 434.932 211.746 434.27 212.862 435.33C213.653 433.077 223.653 424.662 227.095 423.469C228.072 423.137 231.56 422.21 232.351 424.595C225.839 424.927 221.746 432.216 216.723 436.059C225.792 443.547 230.63 426.451 239.095 429.101C234.583 430.559 230.63 435.86 226.211 438.842C231.56 446.396 236.816 431.487 241.746 435.86C241.606 437.715 241.002 436.125 239.699 436.523C237.513 437.782 236.583 440.697 234.304 441.824C236.118 443.414 247.979 448.119 250.304 452.161C247.002 453.155 244.304 449.179 241.141 448.318C242.165 455.408 245.374 459.052 247.885 463.691C242.816 461.57 240.862 454.546 239.002 447.456C236.351 445.535 232.955 445.071 230.537 444.077C231.746 450.438 233.327 460.842 235.792 467.004C230.258 463.89 231.374 450.372 228.072 443.746C226.072 441.824 223.188 441.36 220.676 440.3C221.792 447.125 224.676 453.685 226.165 459.251C221.281 456.137 220.955 445.932 218.211 439.438C216.351 439.041 214.537 438.577 212.304 438.842C213.048 444.607 216.723 450.239 218.118 456.799C213.699 453.155 212.537 444.408 209.513 438.577C206.304 438.113 204.304 440.167 200.537 440.167C205.932 443.679 210.118 449.113 213.56 455.673C206.955 452.161 204.676 441.89 195.746 442.023C190.397 449.775 185.095 457.528 180.537 466.341C191.792 472.305 194.49 454.414 204.165 455.342C198.537 458.456 194.537 463.691 190.351 468.661C197.979 476.546 204.165 464.354 213.141 464.155C211.606 467.468 208.351 467.07 205.979 468.594C203.653 470.052 201.932 472.968 199.513 473.498C203.281 475.751 205.932 478.733 210.723 476.215C213.746 474.624 217.048 470.781 220.258 469.655C221.699 469.125 224.583 467.667 225.839 470.251C219.048 471.046 215.374 475.883 210.49 479.197C216.583 487.281 224.211 477.606 231.979 476.811C228.769 480.257 224.258 481.913 220.397 484.498C224.723 488.474 231.095 489.202 235.606 492.913C232.444 492.118 229.095 491.654 226.165 490.594C226.769 492.913 229.56 496.359 229.979 500.732C227.42 498.678 224.351 490.13 225.095 490.13C223.513 488.937 221.513 488.474 219.792 487.48C222.025 492.516 222.862 499.937 225.234 505.437C221.606 505.371 221.513 497.75 219.979 492.913C219.002 489.865 217.188 488.474 216.955 485.69C215.095 484.829 213.002 484.233 211.327 483.106C212.165 489.07 215.374 498.082 216.165 504.112C211.792 499.871 211.606 489.07 208.862 482.311C207.095 480.787 204.862 479.926 202.816 478.733C202.49 486.751 207.56 493.443 208.676 499.142C204.118 495.365 201.327 486.022 200.676 477.871C198.63 476.414 196.165 475.552 193.606 474.889C195.188 483.172 197.188 489.733 199.839 495.299C194.909 493.311 193.606 481.185 191.141 473.564C189.002 473.498 187.792 471.908 185.513 471.974C187.141 477.209 189.374 485.558 189.979 491.522C186.304 487.016 186.397 476.745 182.723 472.173C180.909 471.576 178.397 471.974 176.118 472.106C169.839 480.058 162.769 486.949 156.723 495.166C166.444 498.678 168.351 486.751 176.909 485.889C172.63 489.136 169.56 494.04 165.095 497.088C172.304 501.726 178.258 488.341 187.141 490.66C181.234 492.648 176.537 496.823 171.467 500.136C172.537 502.985 175.095 503.449 176.862 505.238C179.188 499.871 185.699 497.485 191.606 498.347C187.374 500.732 182.444 502.19 178.63 505.172C183.281 514.78 192.723 503.184 199.839 505.768C196.63 509.015 190.351 508.286 187.513 512.063C191.792 517.365 201.327 511.136 206.583 510.804C203.141 514.78 198.909 514.913 194.258 517.099C197.281 520.876 202.304 524.256 204.676 527.304C202.444 528.364 198.537 523.129 195.467 522.003C194.723 524.852 196.816 532.009 194.909 536.382C193.188 530.485 194.49 522.666 191.885 518.756C189.699 517.298 187.839 515.377 185.467 514.25C186.444 519.485 188.955 527.304 187.792 532.406C185.56 530.617 186.304 525.846 185.746 522.666C185.002 518.491 183.188 515.377 182.63 511.997C180.862 510.804 179.048 509.612 177.281 508.419C176.955 514.78 180.118 519.75 180.258 525.051C177.188 523.925 175.979 512.792 175.188 508.021C174.072 506.298 172.025 506.033 170.211 505.371C170.118 507.889 171.513 516.238 170.723 521.208C167.281 516.901 171.002 501.395 163.885 502.853C163.42 507.292 165.467 514.913 165.792 518.093C161.932 516.503 163.141 507.027 161.42 502.058C156.258 499.208 149.327 500.666 146.258 505.57C146.304 508.286 147.327 509.347 147.56 512.925C150.49 516.437 157.048 514.383 159.234 519.087C156.909 520.678 152.723 516.569 148.769 517.298C148.351 520.28 150.49 523.527 150.49 527.569C154.025 530.352 159.606 526.708 162.723 529.756C159.932 532.009 156.118 530.551 151.978 531.479C152.351 534.527 153.839 535.852 154.304 538.768C158.351 539.695 163.746 538.569 166.583 541.418C164.862 544.135 159.281 539.828 155.839 542.147C156.723 551.159 164.723 549.039 168.723 553.213C166.444 555.599 164.211 552.153 161.42 552.683C162.444 556.129 166.816 558.779 168.025 563.617C165.42 562.821 164.816 558.978 162.63 557.52C160.397 561.629 162.583 567.725 161.699 571.966C158.816 569.713 159.839 560.171 160.816 556.195C159.699 553.412 158.025 551.557 156.444 549.569C155.048 552.352 157.653 559.84 155.839 562.954C153.234 559.044 155.188 551.026 154.583 545.725C154.025 540.822 151.281 537.973 150.397 534.129C148.072 539.629 150.955 549.502 149.653 553.478C147.513 548.906 146.537 534.196 149.606 530.684C148.769 527.768 148.025 524.852 147.56 521.407C145.188 525.913 144.816 533.003 142.537 537.575C141.839 527.702 148.537 518.226 143.048 510.804C135.932 515.045 131.978 527.039 126.862 536.647C115.792 557.322 103.234 575.412 90.1645 594.032C72.8157 618.748 56.7692 643.995 40.4901 669.175C49.3273 668.38 61.3273 667.452 65.5599 659.103C66.4436 651.88 59.7924 654.067 61.0483 648.037C63.1413 650.687 65.7924 652.344 67.5599 655.524C68.2576 651.35 72.3041 647.904 72.7227 643.266C73.0948 638.76 70.3506 636.175 70.2576 632.067C72.8157 630.609 72.7227 637.501 73.9785 639.754C75.6994 635.91 77.932 630.477 79.1413 627.495C79.3273 624.314 76.3971 623.718 77.5134 620.67C79.5134 620.537 79.6529 623.188 80.4436 624.911C83.5599 622.061 85.5134 616.628 83.839 611.327C86.3041 610.73 86.3971 616.164 85.7924 618.616C89.1413 616.031 91.5599 608.146 95.7924 605.098C93.1878 611.327 88.8157 615.302 86.9552 622.525C88.3971 623.917 92.118 621.73 93.5599 623.055C92.3041 625.639 87.4669 625.772 84.9552 625.109C83.7924 626.899 82.7692 628.886 82.025 631.272C84.8622 631.139 88.2576 632.398 91.7459 631.139C90.6297 636.242 85.2343 633.061 81.0483 634.32C78.9552 636.838 77.5134 640.151 76.118 643.531C78.9552 642.139 83.6529 642.338 87.1878 642.272C85.1878 647.308 77.9785 643.464 74.8622 647.573C74.0715 649.561 73.2343 651.416 72.2575 653.205C74.9087 653.735 81.0948 652.278 84.118 654.862C81.3273 658.308 74.8157 653.404 71.0017 657.247C69.6529 659.567 68.4436 662.151 67.0483 664.47C79.6064 662.35 92.1645 666.723 101.467 664.669C102.258 662.615 104.583 659.301 104.676 656.055C104.816 648.766 97.4203 644.326 97.8389 637.699C100.723 642.007 103.374 646.711 105.932 651.549C106.909 649.163 107.746 646.976 107.792 644.458C107.885 637.103 101.513 629.748 104.723 624.38C104.909 630.543 107.792 632.465 108.63 637.501C111.002 633.922 109.513 629.085 111.374 626.435C110.211 619.079 107.188 614.64 104.909 609.007C108.909 610.73 110.304 616.495 112.258 621.399C113.467 618.284 113.978 614.176 115.048 610.796C114.444 606.025 110.49 597.212 113.42 593.568C113.653 597.08 115.095 602.182 115.932 606.29C119.374 601.056 120.816 591.514 119.002 583.297C120.816 584.423 121.002 588.134 121.699 591.05C125.141 586.213 127.42 578.658 130.862 573.622C132.118 571.767 134.258 569.249 136.304 569.315C134.211 574.815 130.537 578.261 128.444 583.695C132.211 583.761 136.397 580.58 140.909 581.905C136.351 585.417 130.816 584.954 127.281 589.725C125.374 592.309 124.397 595.291 123.048 598.935C126.63 597.544 130.63 594.23 134.025 594.23C133.281 596.218 131.141 597.544 129.653 598.471C127.048 600.062 124.025 600.923 121.792 602.977C120.351 605.23 119.467 608.146 118.583 611.128C122.304 610.399 127.048 606.622 129.932 607.881C126.583 612.387 119.932 610.929 116.955 615.7C115.374 618.218 115.978 621.266 114.444 624.314C118.211 622.856 122.258 619.344 126.49 620.073C123.374 624.182 117.327 624.579 113.513 627.892C112.955 630.609 112.118 633.061 112.072 636.44C115.56 635.91 121.141 631.537 125.141 631.603C120.583 637.965 109.327 635.645 110.444 649.428C114.769 648.235 120.258 644.79 125.978 645.452C120.118 650.952 108.118 648.5 107.699 661.024C113.513 659.832 119.095 655.922 124.211 655.458C120.583 662.416 109.606 659.832 105.792 666.59C110.351 668.446 115.746 667.85 121.141 668.512C126.49 669.175 130.63 671.892 132.909 666.259C132.397 658.44 127.374 650.356 130.072 642.669C130.444 649.229 132.723 656.717 134.211 663.211C135.746 662.085 136.165 659.434 137.141 657.579C136.211 654.928 136.583 651.747 136.118 648.235C135.188 640.946 131.374 632.398 134.444 628.555C134.49 637.169 138.63 644.989 138.351 653.073C140.165 648.567 142.397 645.916 142.816 640.88C143.513 632.796 139.095 622.128 142.676 615.634C142.025 621.73 144.118 630.344 144.397 635.844C146.444 634.386 147.327 627.296 149.234 624.115C149.699 620.405 150.165 616.429 149.513 611.194C148.862 606.025 145.699 600.857 147.327 597.477C149.699 602.778 150.909 609.869 151.792 617.489C153.978 614.043 155.141 609.206 157.699 606.224C157.792 605.098 154.165 590.851 156.351 586.478C157.885 590.785 159.699 597.345 158.955 602.182C161.327 598.935 163.327 595.224 165.56 591.845C165.792 587.273 165.048 581.375 166.165 577.93C167.467 580.183 167.234 584.887 167.56 588.731C170.025 587.472 172.676 582.436 174.909 579.321C175.141 572.562 172.49 565.406 176.072 561.894C175.513 568.056 175.885 572.695 176.583 577.731C178.816 576.207 179.932 573.225 182.676 572.363C181.932 575.61 179.42 576.671 178.397 579.586C182.676 580.911 187.56 580.249 191.653 580.713C187.885 585.682 181.048 581.177 176.444 582.701C173.699 583.628 172.63 586.478 170.723 588.996C175.606 588.134 179.095 589.459 182.909 590.188C181.467 593.899 178.49 591.315 176.676 591.116C173.978 590.785 171.606 592.508 168.397 592.64C166.63 595.357 165.234 598.67 163.095 600.923C166.211 601.785 172.955 599.465 176.025 603.044C172.025 605.959 166.397 601.785 162.165 604.435C159.467 606.158 159.42 610.266 157.56 613.182C161.978 611.459 165.746 611.061 170.025 611.857C167.42 615.634 159.234 613.977 154.909 616.826C155.374 618.483 153.885 620.935 153.048 623.387C156.816 624.248 160.862 621.332 164.49 622.658C161.932 626.898 154.258 624.513 151.095 628.025C150.072 630.874 149.56 634.121 147.932 637.169C150.909 636.971 157.002 634.188 160.769 636.308C159.327 639.356 155.839 637.699 153.188 638.296C150.723 638.892 148.816 640.748 147.048 641.211C146.025 644.458 144.769 647.44 143.885 650.82C146.816 650.687 153.002 648.103 156.304 648.5C153.188 652.94 147.839 651.88 142.955 654.332C141.56 656.783 140.816 660.097 139.746 662.946C143.746 662.151 147.234 660.693 151.56 663.145C147.699 666.458 137.839 662.813 136.165 670.102C143.048 670.765 154.351 672.422 159.699 667.518C161.653 661.024 159.327 649.031 162.397 644.061C162.258 650.555 162.118 655.657 162.676 663.874C164.63 660.362 167.978 659.036 168.955 654.53C170.63 646.976 165.513 635.844 169.513 629.218C169.56 635.91 170.211 645.121 170.955 652.41C173.002 651.085 177.281 641.211 178.583 641.013C178.816 632.796 175.327 621.266 178.444 615.236C177.978 623.32 179.374 630.874 180.583 637.898C182.258 633.26 185.839 631.802 186.816 626.567C188.211 619.079 181.932 608.345 187.048 601.785C186.025 607.682 186.862 615.501 188.723 621.001C192.49 617.555 193.095 609.935 195.141 604.236C194.583 595.622 194.862 588.134 196.862 582.833C198.211 586.146 194.63 594.827 197.048 599.664C200.211 593.833 200.955 584.887 205.095 580.315C203.653 586.809 201.281 592.11 200.165 599.001C202.816 598.339 205.467 593.568 209.002 592.441C206.583 599.532 199.653 601.519 196.63 608.146C194.862 612.055 194.769 616.429 192.49 620.338C197.234 620.868 200.583 615.369 204.444 613.116C202.723 617.953 198.909 622.128 194.676 623.188C193.746 623.453 192.444 622.856 191.56 623.387C187.792 625.573 185.234 636.706 182.025 640.35C190.025 639.687 195.606 635.91 200.118 630.742C197.792 638.362 191.048 642.007 184.165 643.199C183.141 643.398 181.746 642.868 180.676 643.398C176.397 645.651 175.885 654.133 172.444 657.314C178.909 657.446 183.885 653.271 186.816 650.422C185.885 659.5 175.792 659.036 170.49 660.892C167.56 663.41 165.42 666.922 163.141 670.301C174.723 669.572 190.63 671.627 196.955 662.615C196.444 658.506 194.444 654.199 195.141 649.826C196.723 652.344 197.281 656.518 198.909 658.97C204.955 654.729 198.583 643.73 198.537 637.169C200.769 640.416 202.258 644.856 203.467 649.693C204.304 645.519 207.467 643.001 207.606 638.495C207.746 634.32 204.537 630.941 205.467 626.766C207.188 628.423 207.978 631.537 208.862 634.453C210.909 631.139 212.165 626.766 214.072 623.188C211.327 612.851 210.676 603.242 211.048 594.628C213.234 602.447 212.583 612.188 215.653 619.079C218.444 615.236 220.397 610.399 223.979 607.616C223.653 611.658 221.188 612.851 220.072 615.832C224.769 614.507 228.444 611.857 232.397 609.537C229.281 615.104 223.141 616.76 218.118 619.875C216.63 622.79 215.374 626.103 214.258 629.549C219.746 628.621 224.165 623.784 228.63 623.121C223.467 630.609 211.467 629.284 210.118 641.675C216.211 642.47 221.234 637.766 225.885 635.181C222.862 641.344 214.63 644.723 209.141 644.723C207.746 647.772 206.537 651.085 205.281 654.398C209.048 654.332 214.955 650.621 217.606 649.097C215.885 655.326 209.978 654.332 206.072 657.314C203.374 659.368 201.792 662.88 200.072 665.663C202.769 664.868 206.165 665.066 208.723 664.072C209.513 663.741 214.072 656.32 217.188 656.585C216.769 659.169 215.42 660.627 214.258 662.217C215.932 661.886 217.234 661.488 219.048 660.428C223.141 652.278 226.304 643.001 232.583 637.766C228.955 644.591 224.816 650.687 222.49 659.235C233.048 658.44 230.769 640.946 239.141 637.302C236.723 642.205 233.281 646.579 232.072 653.868C234.49 654.663 237.002 651.416 239.606 650.886C242.583 642.272 245.374 633.459 251.048 628.356C247.746 634.983 244.537 641.675 242.351 649.76C248.769 649.561 250.444 640.681 254.165 638.561C253.42 641.874 251.56 643.73 250.63 646.711C253.002 648.037 258.444 643.995 259.374 648.633C255.699 649.561 250.118 650.82 247.234 649.958C251.932 654.398 256.537 658.97 260.258 664.934C252.304 661.554 246.63 645.916 236.63 655.061ZM106.211 238.262C108.862 240.713 112.909 243.165 115.792 243.563C116.211 246.611 114.49 248.93 113.141 248.201C113.234 246.81 114.676 246.014 113.746 244.689C112.63 245.02 112.118 244.49 111.281 244.358C110.816 246.014 110.63 247.936 108.955 248.002C108.769 245.948 110.165 244.225 109.141 242.569C107.885 243.761 106.816 245.219 106.537 247.671C116.211 255.026 123.792 265.761 133.095 273.646C136.537 272.122 136.165 265.629 139.746 264.303C134.118 245.816 119.048 244.623 106.211 238.262ZM104.351 244.822C105.048 244.755 104.816 246.147 105.792 245.749C105.979 244.093 106.769 243.231 107.048 241.707C105.234 240.316 104.537 242.701 104.351 244.822ZM104.072 237.4C103.42 237.93 102.862 236.009 102.676 237.466C102.909 237.599 104.072 238.593 104.072 237.4ZM105.048 234.352C106.397 234.948 106.816 231.967 105.979 231.304C105.513 232.165 104.769 232.629 105.048 234.352ZM107.141 235.213C107.746 235.147 108.211 235.28 108.537 235.611C108.816 234.485 109.188 232.298 108.769 231.635L107.746 231.701C108.025 233.491 107.048 233.623 107.141 235.213ZM110.676 236.472C111.002 235.677 112.025 231.701 110.537 231.503C111.048 233.424 109.048 236.207 110.676 236.472ZM104.118 227.991C104.816 228.057 104.862 229.316 105.56 229.382C106.118 229.051 106.072 227.858 106.537 227.328C107.699 227.262 107.42 229.382 108.676 229.183C109.327 228.918 108.909 227.262 110.025 227.593C110.351 229.78 111.141 229.714 112.118 228.455C112.211 229.183 112.723 229.25 112.862 229.912C113.281 232.364 111.281 236.141 113.095 237.334C114.118 236.141 113.188 232.364 113.932 230.84C116.118 231.569 114.583 236.075 114.537 238.262C122.118 240.647 127.699 246.081 136.025 247.207C135.979 243.496 138.444 243.099 138.909 240.051C136.444 237.533 133.141 231.768 130.351 233.159C129.374 232.894 129.746 230.641 128.537 230.774C128.537 232.364 128.397 233.756 127.234 233.822C126.304 232.961 128.49 229.647 126.397 229.912C125.374 230.442 126.211 233.491 124.769 233.491C124.397 232.828 124.63 230.177 124.955 229.051C119.42 226.864 109.932 224.015 104.118 227.991ZM103.606 233.954C103.513 233.027 103.979 232.828 103.885 231.967L102.49 232.033C102.258 233.623 103.095 233.557 103.606 233.954ZM101.048 240.581C101.234 242.237 102.258 242.502 103.234 242.9C103.048 241.707 103.839 241.774 103.513 240.382C103.002 239.719 101.513 239.852 101.048 240.581ZM100.676 229.183C100.955 229.051 101.374 229.117 101.374 228.653C101.095 228.786 100.676 228.72 100.676 229.183ZM100.49 233.159C101.374 233.888 101.467 231.436 100.769 231.635C100.769 231.967 100.723 232.232 100.444 232.165L100.49 233.159ZM100.909 236.141C100.444 236.141 100.583 235.28 100.165 235.213C99.3738 235.81 100.676 237.466 100.909 236.141ZM100.351 240.117L100.304 239.123C99.6064 237.533 98.6762 240.713 100.351 240.117ZM98.2576 228.852C98.6297 228.786 98.8157 229.515 98.9552 228.786C98.9087 228.322 98.3041 228.256 98.2576 228.852ZM99.4669 245.617C99.4204 244.424 99.6994 242.105 97.932 241.774C97.1878 243.364 98.4901 245.153 99.4669 245.617ZM96.025 245.352C95.0948 246.942 97.2808 246.81 97.1878 248.731C98.0715 248.731 98.2576 247.87 98.5366 247.141C97.3738 247.008 97.4204 245.02 96.025 245.352ZM95.9785 233.954C96.1645 235.147 95.3739 235.081 95.6994 236.472C96.8157 237.135 97.2808 233.491 95.9785 233.954ZM94.3506 227.129C95.2808 226.732 95.0948 228.057 95.7925 228.057C95.3273 226.533 95.2808 224.346 94.2576 223.684L94.3506 227.129ZM91.2808 227.858C91.0018 230.641 91.0948 233.424 92.2111 235.213C96.025 234.021 93.932 226.864 91.2808 227.858ZM92.3506 240.183C92.2576 240.515 91.5599 242.171 92.3971 242.171C92.4901 241.84 93.2343 240.183 92.3506 240.183ZM91.1413 213.015C91.5134 212.949 91.6994 213.678 91.839 212.949C91.7925 212.419 91.1878 212.352 91.1413 213.015ZM90.3971 222.955C92.211 223.22 93.0948 222.358 93.839 221.232C93.7459 219.178 91.7925 216.726 93.2808 215.334C90.025 208.708 86.9087 219.641 90.3971 222.955ZM89.7459 234.352C86.5831 232.364 86.0715 239.388 88.2111 240.912C90.025 240.448 90.7227 237.069 89.7459 234.352ZM89.0483 245.352C89.839 244.093 87.8855 244.159 87.9785 244.954C87.9785 244.888 89.1878 245.153 89.0483 245.352ZM87.3738 247.406C87.4669 248.665 87.932 249.261 88.8157 249.261C88.8622 247.87 87.7925 248.135 87.3738 247.406ZM87.6064 211.756C89.0018 211.226 89.9785 210.099 90.2576 208.112C89.2808 205.991 88.5831 203.473 86.9552 202.413C83.3273 203.606 86.3041 210.298 87.6064 211.756ZM86.1646 220.238C87.5599 221.298 87.6064 217.123 86.4436 217.72C86.7227 219.111 85.9785 219.045 86.1646 220.238ZM83.4669 201.618C84.1645 200.889 84.5832 199.895 84.7692 198.57C83.6994 197.509 83.2808 195.323 81.5134 195.323C80.8622 197.907 81.6064 201.419 83.4669 201.618ZM83.3739 210.033C82.6762 212.419 82.4901 215.997 84.6297 216.395C86.1645 214.605 85.5599 210.232 83.3739 210.033ZM71.6064 222.69C71.932 221.563 72.118 220.172 72.5366 219.178C71.0948 218.581 70.8157 221.961 71.6064 222.69ZM72.0715 226.135C74.211 226.069 74.2111 223.286 74.6762 221.033C74.1646 220.967 74.0715 220.238 73.6064 220.105C73.3739 222.292 71.4669 224.346 72.0715 226.135ZM75.0018 230.906C74.8622 232.894 73.6064 233.491 73.7925 235.942C75.4669 236.87 76.0715 233.888 76.0715 231.304C75.6529 231.304 75.5599 230.708 75.0018 230.906ZM75.6529 217.985C75.3739 218.117 74.9552 218.051 74.9552 218.515C75.2343 218.382 75.6529 218.449 75.6529 217.985ZM72.6762 234.021C73.1878 232.629 73.8855 231.503 74.2576 229.979C73.7925 229.979 73.7459 229.382 73.1878 229.581C73.0948 230.774 71.6064 232.762 72.6762 234.021ZM74.7227 254.165C74.8157 253.834 75.5134 252.177 74.6762 252.177C75.0483 253.105 73.6994 253.966 74.7227 254.165ZM75.9785 238.792C74.9087 238.858 74.2111 241.84 74.7227 242.37C74.9552 240.912 75.6994 240.117 75.9785 238.792ZM75.7925 244.225C77.1413 243.828 78.2111 240.581 77.0483 239.653C77.0483 241.707 75.5599 241.906 75.7925 244.225ZM77.2808 235.677C77.0018 235.81 76.5831 235.744 76.5831 236.207C76.8622 236.141 77.2808 236.207 77.2808 235.677ZM77.3738 228.786C77.0948 228.918 76.6762 228.852 76.6762 229.316C76.9552 229.183 77.3738 229.25 77.3738 228.786ZM77.5134 210.895C77.7459 204.467 69.8855 205.461 72.7227 213.678C73.0948 212.949 72.9552 211.425 74.025 211.624C74.5831 214.274 73.1878 214.274 73.1413 216.13C74.9552 214.539 77.3739 213.877 77.5134 210.895ZM77.9785 225.738C79.6994 225.473 80.6762 224.214 82.0715 223.485C83.9785 219.045 80.2576 213.81 77.6994 217.852L77.9785 225.738ZM78.6297 213.346C78.8157 212.154 79.7459 211.955 79.932 210.762C78.9552 210.63 78.025 213.015 78.6297 213.346ZM80.6762 212.684C80.6762 213.015 80.6297 213.28 80.3506 213.214L80.3971 214.208C81.2808 214.937 81.3273 212.419 80.6762 212.684ZM79.6994 236.539C84.025 237.201 84.5831 227.858 81.1878 228.521C78.4436 228.985 80.2576 234.816 79.6994 236.539ZM79.6064 201.353C77.2808 201.883 77.839 207.979 79.839 208.244C82.3041 207.847 81.6994 201.684 79.6064 201.353ZM76.7692 199.1C77.7459 197.178 79.5134 196.317 79.6994 193.467C77.5599 187.504 73.7925 195.256 76.7692 199.1ZM73.9785 188.895C75.1413 190.154 75.5134 189.359 76.3971 188.232C76.5832 188.829 76.8157 189.359 77.1413 189.69C77.1413 188.895 78.0715 189.359 78.1646 188.63C76.9552 187.106 75.1878 186.51 73.932 187.437L73.9785 188.895ZM71.839 197.907C71.932 200.69 70.7227 203.871 71.0483 205.395C75.1413 206.19 76.025 197.642 71.839 197.907ZM73.3739 191.877C73.0018 191.214 72.7692 190.419 72.2576 189.955C71.5599 191.943 69.3273 191.811 69.6529 195.058C71.4204 196.317 73.0948 193.997 73.3739 191.877ZM68.7227 186.708C70.9552 186.178 70.2576 187.901 70.211 190.088C72.5831 190.022 71.9785 186.046 73.1413 184.455C70.8157 183.263 69.6064 184.058 68.7227 186.708ZM69.7459 217.852C68.6762 218.515 68.3041 220.039 68.118 221.894C69.4669 221.629 69.1413 219.178 69.7459 217.852ZM68.9552 226.334C69.0483 226.997 67.6064 227.924 68.6762 228.322C68.5831 227.726 69.7925 226.4 68.9552 226.334ZM67.9785 185.781C67.7459 185.052 69.2808 184.455 68.2576 184.257C68.3506 184.787 66.8157 185.383 67.9785 185.781ZM67.839 192.738C67.9785 191.612 68.4436 190.154 67.7459 189.293C67.0948 189.226 67.0018 189.889 66.3971 189.889C66.118 192.009 67.0017 192.341 67.839 192.738ZM66.025 200.756C67.1413 200.226 66.5366 202.347 67.4669 202.148C67.9785 201.154 69.1878 197.907 67.6529 197.178C67.2343 198.503 66.5831 199.564 66.025 200.756ZM67.4204 210.63C67.5599 209.238 68.211 208.509 68.3506 207.118C66.7227 206.256 66.6297 209.834 67.4204 210.63ZM67.3273 218.515C67.5134 217.455 68.025 216.858 68.3041 215.997L66.9087 216.063C67.0948 216.792 66.5832 218.648 67.3273 218.515ZM68.0715 252.177C69.5599 251.382 69.6994 253.767 70.5366 252.508C70.5831 251.581 70.118 251.448 70.118 250.587C68.9087 250.454 68.6297 251.514 68.0715 252.177ZM66.4436 255.225C67.9785 254.43 67.4204 256.815 68.5831 256.55C69.2343 255.291 68.4901 252.84 67.4204 252.641C67.2343 253.767 66.7227 254.364 66.4436 255.225ZM62.8622 252.044C63.3273 251.978 63.6529 252.243 63.932 252.442L63.8855 250.984L63.1878 251.05C63.1878 251.514 62.9087 251.581 62.8622 252.044ZM62.2111 254.562C61.7459 254.562 61.8855 253.701 61.4669 253.635C61.1413 254.629 62.118 255.888 62.2111 254.562ZM61.1413 263.508C61.4669 262.845 61.4204 261.653 61.7459 260.99L60.7227 261.056C60.9087 261.785 60.3971 263.641 61.1413 263.508ZM58.7692 265.165C59.5134 265.695 59.0948 268.147 59.932 268.544C59.7459 266.821 61.3273 265.032 60.4901 264.038C60.2111 265.363 58.7692 263.044 58.7692 265.165ZM57.932 261.255C59.4204 261.52 58.9552 258.605 58.1645 258.273C58.2111 259.4 57.6529 259.731 57.932 261.255ZM56.211 262.382C57.1878 262.249 55.8855 265.629 57.3273 264.767C57.0948 264.104 56.9552 260.592 56.211 262.382ZM54.118 303.598C54.7692 291.008 57.4203 278.55 59.2343 269.074C58.4436 271.261 58.3041 265.363 57.4669 267.683C58.2111 267.55 57.6994 269.406 57.8855 270.134C57.2808 271.128 56.8622 269.604 56.1646 270.731C55.9785 271.924 55.7459 273.05 55.932 274.707C54.7692 274.707 55.2808 275.833 53.8855 276.297C54.7227 272.918 53.839 272.189 53.6064 268.412C54.5831 268.412 54.2576 270.466 55.4204 270.267C55.839 268.213 56.4901 265.496 54.8622 264.369C51.1413 273.448 48.025 283.255 45.7459 294.188C46.3506 296.044 47.2808 297.303 48.6297 297.965C49.5134 295.977 49.4669 292.73 50.8622 291.405C50.8622 294.983 50.4901 298.164 49.4204 300.417C51.0483 301.477 51.7459 303.796 54.118 303.598ZM69.3738 270.4C68.3971 270.068 67.9785 268.809 67.1878 268.08C66.118 271.128 68.8622 272.652 68.118 274.972C66.6762 275.701 67.1413 273.381 66.3041 273.116C64.118 276.363 68.2576 278.152 67.2343 281.002C65.5599 279.411 64.118 277.556 63.5599 274.309C65.7459 272.785 66.4901 265.761 65.2808 262.779C68.4436 262.647 67.5134 257.478 66.118 255.821C59.9785 272.056 54.4901 292.399 56.6297 316.387C59.0948 317.778 60.4436 320.826 64.0715 320.362C66.8157 304.592 66.3506 284.514 69.3738 270.4ZM70.4901 262.912C69.2343 263.508 69.3273 261.918 68.7227 261.52C67.4204 264.038 67.9785 267.285 69.6529 268.875C69.4204 266.225 70.2576 264.966 70.4901 262.912ZM71.0948 259.4C69.9785 259.93 70.3506 258.141 69.6529 258.008C69.0018 259.267 70.1645 261.056 70.4901 262.382C70.9552 261.719 70.6297 260.062 71.0948 259.4ZM70.9087 254.43C70.5831 255.821 70.7227 257.279 71.3738 258.339C71.1413 257.147 72.5366 254.43 70.9087 254.43ZM83.6529 261.056C83.2808 258.472 82.8622 254.695 81.3273 253.767C78.3506 257.147 79.6529 266.092 77.3273 270.4C76.1646 263.508 79.1878 257.08 77.7925 253.038L77.0948 253.105C71.3273 273.58 69.0018 298.297 74.4436 320.627C76.8622 320.892 81.3739 322.748 83.0948 320.031C84.2576 318.176 84.4436 310.489 84.7227 306.049C85.6529 291.339 85.5599 273.978 83.6529 261.056ZM85.0018 238.659C83.6529 235.744 81.1413 238.725 80.9087 241.376C82.9087 240.78 81.6529 244.093 81.3738 244.822C83.2808 243.695 84.8622 242.105 85.0018 238.659ZM84.7227 219.376C84.6762 218.78 84.5831 218.184 83.9785 218.449C84.0715 219.045 83.9785 219.84 84.3971 219.906C84.3971 219.575 84.4436 219.31 84.7227 219.376ZM86.5366 231.635C88.8622 230.111 90.3971 223.485 86.9087 222.226L85.8855 222.292C85.6994 225.539 83.3273 230.774 86.5366 231.635ZM93.3273 248.532C93.3273 249.46 92.2111 248.93 92.3506 250.057C93.2343 249.725 93.6064 250.189 93.4204 251.448C92.3971 252.906 91.5599 250.918 90.6297 250.653C91.6994 255.954 93.932 260.725 93.6064 267.285C92.6297 263.972 91.5134 260.858 90.8622 257.08C90.2576 256.815 88.8622 257.809 88.7692 256.749C88.3971 255.159 89.8855 255.954 90.118 255.159C89.6994 253.966 89.839 251.779 88.6297 251.779C86.8622 252.773 87.1878 256.285 87.1413 258.803C86.9087 267.086 87.3738 276.429 88.3506 285.441C89.3273 294.321 92.2576 316.85 97.3738 317.513C98.5366 317.646 100.211 317.844 100.072 315.326C100.165 313.935 98.211 315.856 98.3041 314.465C99.8855 313.471 100.165 310.887 100.909 308.832C101.653 310.29 101.234 313.471 101.467 315.724C103.095 315.459 103.513 313.67 105.234 313.471C105.374 289.351 100.816 264.171 93.3273 248.532ZM112.211 283.387C113.42 286.7 115.002 293.459 117.095 293.989C119.188 294.52 121.746 291.604 122.862 289.152C122.676 288.423 122.304 287.959 122.118 287.231C120.769 287.363 119.932 289.881 119.002 287.959C119.467 286.502 121.188 286.7 121.327 284.845C120.909 282.194 117.606 280.405 119.002 278.086C120.676 279.478 121.792 281.664 122.676 284.249C123.467 284.447 124.49 282.592 124.723 283.586C124.025 285.176 122.955 286.303 123.513 289.616C131.839 290.146 127.885 279.478 125.467 274.64C119.885 263.376 108.769 251.647 101.56 245.02C101.513 246.014 100.63 246.081 100.583 247.075C103.374 248.599 106.63 252.111 107.467 255.026C105.746 254.231 104.676 253.303 102.583 254.364C102.351 252.84 103.606 253.171 103.188 251.382C101.792 251.183 101.234 253.436 100.072 252.111C100.118 250.785 101.467 250.123 100.676 249.129C99.4204 248.267 99.1878 249.924 98.3041 250.785C102.072 259.4 108.025 272.056 112.211 283.387ZM120.165 505.768C119.327 505.172 120.118 502.058 119.002 501.859C118.909 503.648 119.56 506.829 120.165 505.768ZM67.7459 104.608C67.1413 105.999 65.932 109.18 66.5366 110.638C67.3273 109.379 68.2576 105.867 67.7459 104.608ZM71.1413 101.891C70.2576 101.891 70.0715 102.752 69.4204 103.017C70.3041 104.74 68.2111 107.656 68.9087 108.981C69.8855 106.861 70.5366 104.409 71.1413 101.891ZM71.9785 105.27C71.9785 103.216 73.7459 100.963 73.1878 99.7704C72.9552 101.559 71.2343 103.879 71.9785 105.27ZM112.955 72.3371C111.885 71.9396 111.281 70.813 110.118 70.548C108.816 72.9997 111.653 74.1926 111.281 74.9214C110.723 76.8431 109.885 75.319 108.862 75.0539C106.304 79.6262 103.42 86.2525 99.8855 88.0416C102.723 83.8008 105.699 79.7587 107.42 74.1925C108.444 73.6624 106.583 73.53 107.002 72.2709C108.258 71.8733 108.676 70.3492 108.955 68.6927C108.304 68.4939 108.304 67.3011 107.188 67.8312C100.537 78.1021 89.9785 89.4332 81.0948 98.7764C77.6529 102.421 72.2576 107.258 72.4901 112.692C76.118 114.68 77.0948 123.559 80.5366 124.553C86.3041 126.21 94.8622 109.842 96.9553 106.132C102.909 95.7945 109.467 83.9996 112.955 72.3371ZM74.3041 102.686C75.4204 101.493 78.4436 98.1137 77.2343 97.0535C76.6297 98.3125 76.2576 99.9029 75.2808 100.632C75.1878 100.035 75.2808 99.2402 74.8622 99.174C75.2343 100.764 73.2808 101.758 74.3041 102.686ZM79.0018 97.915C79.7459 96.0596 83.7925 94.403 81.932 92.2825C81.2808 93.409 80.4901 97.0535 79.6064 94.9331C79.5134 95.7283 78.0715 97.1861 79.0018 97.915ZM105.56 16.4105C105.281 16.3443 105.141 16.0129 105.188 15.4166C103.513 16.4105 101.885 17.4045 100.444 18.7298C101.281 18.9948 101.42 20.3201 102.258 20.5852C103.048 18.7961 104.862 18.3322 105.56 16.4105ZM94.5366 40.398L96.6297 40.2655C96.6297 38.7414 95.6994 38.6089 94.8157 38.4101C94.9087 39.3378 94.4436 39.5365 94.5366 40.398ZM92.7227 27.6091C92.8157 28.8682 93.2808 29.4645 94.1645 29.4645C94.6762 29.0006 95.2343 28.6693 95.1413 27.4103C94.6297 27.344 94.5366 26.6151 94.0715 26.4826C93.839 27.2115 93.3738 27.5429 92.7227 27.6091ZM92.6297 25.1573C91.5599 25.0911 91.0483 24.1634 90.1645 23.832C90.2576 25.2236 89.1413 25.0248 89.1878 26.3501C90.3971 27.079 92.4901 27.9404 92.6297 25.1573ZM98.7692 21.7779C97.0948 22.4405 95.932 23.7659 95.4204 25.9526C97.0948 27.2115 99.1413 23.1694 98.7692 21.7779ZM95.5599 29.9283C95.5134 31.5187 97.1413 31.6512 97.6529 30.7897C97.932 28.8681 96.0715 29.1332 95.5599 29.9283ZM95.7925 36.3559C96.6297 36.0909 96.5832 37.2173 97.5599 36.7535C97.6064 35.1631 97.0483 34.4343 96.0715 34.368C96.1646 35.2957 95.6994 35.4945 95.7925 36.3559ZM96.8157 46.693C96.8157 45.434 97.932 45.6329 98.8622 45.5666C98.9553 46.163 98.8622 46.9581 99.2808 47.0243C99.2343 45.6991 99.3273 44.175 98.8157 43.5787C97.1878 43.0486 96.2111 45.8979 96.8157 46.693ZM101.327 25.0911C99.7925 23.8321 98.7692 26.6151 97.932 27.8079C99.5134 29.7958 100.397 26.6152 101.327 25.0911ZM100.444 30.0608C101.234 30.1271 102.397 28.2718 101.746 28.0067C101.792 29.2657 100.444 28.8019 100.444 30.0608ZM102.955 22.5068C104.118 24.0308 106.583 21.1152 107.002 18.796C105.188 19.3924 103.513 20.2538 102.955 22.5068ZM114.025 41.0606C115.513 43.4461 121.281 44.904 120.909 39.139C118.862 36.0246 114.769 36.6872 114.025 41.0606ZM118.49 18.0009C118.49 17.4708 117.839 17.4045 117.792 18.0671C118.165 18.0008 118.351 18.7298 118.49 18.0009ZM118.118 49.7413C120.118 52.4581 123.42 50.1388 124.676 47.8196C123.327 42.9824 118.862 46.0304 118.118 49.7413ZM121.699 32.1813C121.42 32.3139 121.002 32.2475 121.002 32.7114C121.327 32.5789 121.699 32.6452 121.699 32.1813ZM138.862 57.2952C138.444 58.8193 137.327 59.4157 136.909 60.8735C138.723 61.4699 139.513 58.2892 138.862 57.2952ZM139.188 66.1746C138.444 65.777 137.932 67.8975 138.537 67.6987C138.537 66.9036 139.374 67.2349 139.188 66.1746ZM136.676 64.3193C136.072 65.9096 134.397 66.1084 134.025 67.9638C134.397 68.03 134.583 68.4938 134.769 68.8914C135.792 68.1625 138.025 65.1807 136.676 64.3193ZM135.513 71.8733C134.444 71.3431 134.072 74.06 134.909 74.3913C135.048 73.3974 135.885 73.3973 135.513 71.8733ZM134.397 59.0182C134.63 57.4278 135.234 56.3675 135.653 54.976C134.211 55.3073 133.979 57.229 133.327 58.6205C131.188 58.753 133.374 59.482 134.397 59.0182ZM133.42 71.0119C133.699 70.8794 134.118 70.9456 134.118 70.4817C133.839 70.6142 133.42 70.548 133.42 71.0119ZM133.606 55.1086C134.583 55.1086 134.444 53.6508 134.909 53.0544C133.839 52.9219 133.374 53.5845 133.606 55.1086ZM134.816 49.6087L134.769 48.1509C133.979 48.0846 133.467 48.3497 133.42 49.2111C133.885 49.3436 134.072 49.8737 134.816 49.6087ZM136.537 50.0062C137.42 50.205 138.444 48.1509 137.513 47.4883C137.839 49.1448 136.118 48.1509 136.537 50.0062ZM137.746 43.4462C137.56 45.4341 135.467 44.904 135.792 47.5545C136.816 47.0244 138.444 44.7715 137.746 43.4462ZM135.653 43.1149C134.769 44.9703 132.862 45.4341 132.676 48.2834C133.885 47.3557 136.769 43.91 135.653 43.1149ZM133.42 38.8077C130.444 37.6813 127.792 40.4643 127.327 44.1751C129.885 46.428 134.025 43.7112 133.42 38.8077ZM120.397 76.313C120.816 76.1805 121.374 76.313 121.42 75.7166C119.56 76.1805 118.583 75.319 117.234 74.9877C117.699 76.7106 120.211 77.9033 120.816 77.7045C120.351 77.7045 120.351 77.0419 120.397 76.313ZM117.095 60.6747C116.676 60.8073 116.118 60.6747 116.072 61.271C116.49 61.1385 117.048 61.2711 117.095 60.6747ZM122.211 68.2951C121.513 67.4336 121.327 68.295 120.49 68.4276C120.49 69.289 120.63 69.9517 120.909 70.3492C121.746 70.2167 122.211 69.5541 122.211 68.2951ZM123.699 61.271L123.653 59.2831C121.327 59.0843 120.676 61.0723 119.234 62.0663C119.141 63.6566 120.165 63.3915 120.676 63.9216C121.048 61.6024 121.932 59.9458 123.699 61.271ZM123.327 71.1444C124.723 71.2106 124.862 69.6866 125.699 69.024C125.234 69.0903 124.909 68.8252 124.63 68.6264C124.444 69.7529 123.56 70.0179 123.327 71.1444ZM125.979 76.9094C125.281 75.9817 124.351 76.7768 123.56 77.0419C123.513 79.1623 125.699 77.5057 125.979 76.9094ZM123.699 82.0779C124.816 81.4816 126.676 81.8129 126.769 79.8912C126.118 78.4997 124.909 80.2888 123.979 80.09C124.025 80.8852 123.932 81.6141 123.699 82.0779ZM129.281 50.934C129.467 53.1869 127.885 53.2532 127.699 54.976C130.165 54.976 130.723 52.5906 131.002 49.8075C128.955 49.4762 124.769 50.4701 124.211 54.7111C126.537 55.9038 127.234 51.6628 129.281 50.934ZM130.723 62.7289C130.258 62.7289 130.211 62.1326 129.653 62.3314C129.095 63.1928 129.42 64.9156 130.118 65.2469C130.025 64.0541 130.583 63.7229 130.723 62.7289ZM127.979 64.4518C127.979 65.7107 126.49 65.0481 127.002 66.9698C127.699 66.6385 129.281 67.4336 129.42 66.3072C128.63 66.1747 128.63 64.8494 127.979 64.4518ZM126.955 75.9154C128.49 77.1744 129.979 74.9877 130.723 73.6625C129.234 74.0601 127.746 74.5239 126.955 75.9154ZM128.118 79.2949C129.002 80.09 132.118 77.7045 131.513 76.5781C130.909 78.1684 128.258 77.1081 128.118 79.2949ZM131.188 55.7712C131.374 56.964 130.583 56.8976 130.909 58.2892C131.979 58.4217 132.258 55.8375 131.188 55.7712ZM128.397 34.1692C126.955 31.3862 123.467 33.5066 122.537 35.5608C123.327 35.6933 122.63 38.2114 123.327 38.4764C126.025 38.3439 127.653 36.8198 128.397 34.1692ZM115.932 45.8979C116.49 45.8979 116.258 47.1569 117.002 46.8256C117.234 45.7654 115.792 45.0365 115.932 45.8979ZM111.188 61.0723C111.095 61.4036 110.397 63.0602 111.234 63.0602C110.909 62.1326 112.258 61.3374 111.188 61.0723ZM110.769 58.6205C109.885 58.753 109.002 58.8193 109.095 60.2109C109.885 60.0121 110.537 59.6145 110.769 58.6205ZM113.095 45.5666C110.258 44.7714 108.676 46.6268 108.025 49.8737C109.048 50.4039 109.234 47.422 109.746 48.7473C110.025 50.2714 109.188 50.2714 109.513 51.7292C112.211 51.7292 114.258 49.1448 113.095 45.5666ZM113.095 55.97C113.095 54.711 114.444 55.1748 114.397 53.9158C113.699 53.982 112.072 55.2411 113.095 55.97ZM115.699 28.6031C113.606 28.6694 112.49 30.1271 111.281 31.3862C111.839 31.7837 111.188 32.115 111.699 33.3078C114.258 35.2957 117.932 32.4464 115.699 28.6031ZM116.816 21.049C114.304 18.2659 112.49 22.9044 111.746 25.3561C113.513 25.6212 117.653 25.6875 116.816 21.049ZM113.234 17.3382C112.955 17.4708 112.537 17.4045 112.537 17.8683C112.816 17.7358 113.234 17.8683 113.234 17.3382ZM113.141 14.4227C112.304 14.754 110.583 13.9588 110.397 15.0853C110.909 15.6816 113.141 15.8804 113.141 14.4227ZM109.699 36.886C108.769 38.0788 106.909 40.5305 107.42 41.9883C107.746 42.5184 110.909 42.5184 111.56 40.7293C111.746 38.2113 110.723 37.615 109.699 36.886ZM107.606 37.0185C107.56 38.2113 105.374 39.139 106.304 40.0666C106.537 39.0727 108.537 37.9462 107.606 37.0185ZM110.211 20.5189C109.792 20.6514 109.234 20.5189 109.188 21.1152C109.606 20.9827 110.165 21.1152 110.211 20.5189ZM109.095 18.5973C109.002 17.6696 108.816 16.9407 108.351 16.6756C107.839 17.4708 108.025 18.9286 109.095 18.5973ZM106.816 33.109C108.816 33.9704 109.606 30.7236 108.769 29.5308C108.351 31.0549 107.234 31.6512 106.816 33.109ZM108.165 22.1755C106.49 22.6393 105.188 23.6333 104.444 25.4224C106.118 24.8923 107.141 23.5007 108.165 22.1755ZM114.118 65.3132C114.072 66.3072 113.188 66.3734 113.141 67.3674C114.211 67.9637 115.048 65.8433 114.118 65.3132ZM115.606 58.2892C116.444 56.5663 118.444 56.3013 118.211 53.1869C117.42 52.458 116.351 54.8435 115.42 52.8556C115.095 54.9761 113.885 55.9037 113.513 57.9579C114.583 57.494 114.816 58.3555 115.606 58.2892ZM122.258 81.1502C119.746 81.4153 116.583 74.9877 115.979 80.09C118.118 80.6864 121.048 80.1563 121.653 83.2045C120.025 83.6683 117.56 81.8791 115.327 81.6141C112.769 89.8308 109.327 96.921 107.048 105.469C103.374 113.487 99.1878 120.842 96.3971 129.92C97.0948 132.637 101.188 132.77 102.723 132.438C102.072 131.908 101.048 131.975 101.234 130.053C103.327 129.722 104.723 130.45 104.816 133.3C104.165 133.565 102.583 132.372 103.42 133.366C106.49 136.017 109.885 139.131 112.862 135.685C120.304 127.204 122.165 99.2402 122.258 81.1502ZM133.002 79.4274C131.513 80.2888 127.979 80.6201 128.955 83.1381C129.746 83.9333 132.211 80.4213 133.792 82.3429C132.909 84.5297 129.979 83.9996 129.048 86.12C129.792 85.9875 129.281 87.8429 129.467 88.5718C130.258 89.8971 131.374 85.9875 132.583 87.8429C132.258 89.632 130.444 89.4332 129.885 91.0235C131.281 94.8005 131.746 102.487 130.397 106.33C130.118 99.704 129.467 94.1379 127.979 86.1863C127.467 85.9213 126.211 86.9152 126.211 85.7887C126.397 84.5297 128.304 84.3309 127.141 82.7405C126.769 82.1442 124.63 83.2044 124.072 83.9333C125.606 99.7041 120.304 113.818 121.746 129.191C131.42 127.137 136.118 124.487 137.188 112.294C138.165 101.294 136.444 86.5176 133.002 79.4274ZM139.932 67.5662C139.513 69.4215 137.327 71.4094 138.025 73.1323C138.397 71.7408 139.839 70.1505 140.723 70.9457C139.374 72.536 138.862 75.1202 137.048 76.1142C136.955 75.2527 137.327 73.5961 136.304 74.1925C135.002 76.1804 136.769 79.0298 137.56 81.0177C139.653 86.2526 141.002 92.5476 143.606 95.9933C145.281 90.7585 150.165 85.7887 149.699 79.7587C149.327 74.9877 142.862 69.0902 139.932 67.5662ZM142.49 51.0665C142.025 53.1869 144.304 51.0002 144.258 52.4581C144.816 54.7773 143.42 57.0303 144.444 58.4218C144.583 56.8977 144.397 54.9098 145.699 54.8435C145.792 55.2411 146.025 55.3736 146.397 55.3073C146.211 57.0964 145.885 61.1386 144.211 62.3976L144.118 59.4158C142.723 59.8133 143.188 62.6626 141.42 62.5964C141.234 60.5422 142.63 58.8193 141.606 57.1628C140.165 57.6266 140.165 60.0121 139.653 61.735C143.095 63.1265 144.397 67.8312 148.211 68.6264C148.258 62.3314 148.723 50.5364 142.49 51.0665ZM141.606 55.5724C142.676 56.1025 143.048 53.3857 142.211 53.0544C142.304 54.3135 141.746 54.6447 141.606 55.5724ZM142.537 30.7897C142.258 30.9223 141.839 30.8561 141.839 31.3199C142.118 31.1874 142.537 31.2536 142.537 30.7897ZM143.699 24.2297C141.746 24.826 139.467 25.0248 139.281 28.0067C141.606 29.6633 144.862 27.0127 143.699 24.2297ZM144.909 28.6031C144.909 29.9946 144.351 30.7235 144.351 32.115C145.606 32.7114 145.606 29.1332 144.909 28.6031ZM141.467 19.9225C144.351 18.4648 144.816 21.7117 146.676 19.5912C145.374 18.1997 145.839 17.2057 144.816 15.2841C142.165 14.9528 139.606 17.2057 141.467 19.9225ZM139.141 12.1697L139.839 12.1034L139.792 11.1094L139.095 11.1757L139.141 12.1697ZM139.048 20.1213C137.188 20.3863 135.792 21.2478 134.955 22.8381C135.467 25.0911 138.118 24.0972 139.141 23.0369L139.048 20.1213ZM134.397 16.4768C136.258 17.6033 138.211 16.0792 137.746 12.766C137.048 12.8323 137.281 11.4407 136.304 11.8383C135.979 13.76 135.653 15.6816 134.397 16.4768ZM134.351 35.2957C136.304 35.6933 138.955 36.0909 138.769 32.5127C136.955 31.5187 134.583 32.7777 134.351 35.2957ZM133.746 27.8742C131.374 27.6091 130.63 29.5308 129.699 31.1211C131.42 32.3138 134.118 30.9886 133.746 27.8742ZM128.816 14.8202C129.606 15.8141 130.49 14.1576 131.932 14.6215C131.885 13.0974 132.583 12.6335 132.862 11.5732C130.909 11.9046 130.072 13.6937 128.816 14.8202ZM127.699 23.302C129.141 23.6996 131.234 23.9647 132.537 22.9707C133.002 20.9828 132.676 18.9949 132.397 18.0009C129.606 18.2659 127.746 19.5912 127.699 23.302ZM128.816 26.2176C128.351 26.2176 128.304 25.6211 127.746 25.8199C127.281 27.079 129.002 27.2115 128.816 26.2176ZM120.63 20.3201C122.723 20.3201 125.048 21.049 126.165 18.9949C126.537 11.242 120.537 16.2118 120.63 20.3201ZM119.141 27.8742C120.676 31.5187 126.211 29.2657 125.979 24.9586C124.537 22.3743 118.49 23.2358 119.141 27.8742ZM109.653 13.6275C111.792 13.1636 117.42 9.25408 118.025 14.0913C116.63 14.4889 114.304 13.6937 113.513 14.8865C113.792 15.8804 115.56 14.4227 115.281 16.2781C116.63 16.1455 116.816 14.4889 118.351 14.6215L118.258 11.6396C115.281 9.51916 110.258 12.6998 109.141 9.78417C111.792 9.12151 115.885 8.8565 117.792 8.72399C114.351 2.69396 102.676 6.86858 109.653 13.6275ZM106.211 15.3503L107.606 15.2841C107.792 13.2962 106.072 13.76 106.211 15.3503ZM91.6064 3.95293C93.0948 10.3143 97.1878 12.501 100.025 16.7419C101.281 16.0129 102.49 15.2178 103.42 14.0251C103.467 12.6998 101.467 11.9046 102.304 11.1094C103.42 11.7058 104.816 13.8263 106.165 12.3685C103.885 5.27825 97.8855 1.69994 91.6064 3.95293ZM88.8157 24.8923C88.8622 24.4947 88.7692 23.8984 89.1413 23.8984C88.7692 21.5792 86.6297 21.9105 86.2111 19.6575C87.7459 20.055 88.7692 21.1815 90.1181 21.8441C91.3739 20.3201 92.3506 15.9467 94.4901 17.0732C93.5134 19.1274 92.3506 20.9164 91.1878 22.7718C92.3506 23.0369 92.9553 24.1634 94.025 24.561C94.7227 22.7719 95.839 21.5791 97.0018 20.3863C92.7227 12.0372 83.6994 4.48308 74.7227 8.45891C76.8622 8.39263 77.3738 10.8444 79.9785 10.1155C79.6529 12.5672 81.4204 11.7058 81.4669 13.4949C79.4204 12.0371 76.7692 13.5611 75.5599 13.8925C75.1413 12.1034 76.8157 13.0311 76.5366 11.3745C75.0483 10.5793 73.4204 9.98296 71.932 9.18779C70.8157 10.3805 69.0948 11.9046 70.3971 14.754C76.5366 17.8021 82.7227 23.5008 88.8157 24.8923ZM89.6529 39.7353C89.3274 38.0125 90.1181 37.8138 89.8855 36.2234C87.5134 34.5005 83.2343 35.8921 81.4669 33.3078C84.9087 32.9102 87.6064 33.7717 90.2111 34.6993C91.3273 34.4343 91.1413 32.4464 92.5832 32.5789C93.7459 33.3078 91.1413 34.9643 93.0018 35.0306C93.932 36.5547 94.8157 33.9704 95.0018 32.9102C85.2808 27.9405 64.9553 14.6214 56.6297 29.5308C61.3273 28.3381 67.6529 26.8802 71.6064 30.5248C69.0483 31.0549 67.5134 29.9946 65.0018 30.4584C64.3041 31.4524 62.9552 34.0367 62.3041 33.6391C61.7459 32.115 63.7925 30.591 62.2111 30.6573C60.2111 31.7175 60.4901 35.6933 58.2111 36.3559C57.9785 34.0367 59.3273 33.7054 59.0948 31.3199C57.839 31.3862 56.3041 31.9163 55.932 30.5248C55.2808 32.2476 54.5832 35.1632 55.4669 37.4825C66.8622 38.2776 79.1878 37.5486 89.6529 39.7353ZM93.3739 37.0185C92.3041 37.4161 92.3041 36.2234 91.2808 36.6872C91.6994 38.6089 90.3041 38.2114 90.7227 40.1993L93.1413 40.0666C92.8157 38.4763 93.6529 38.4764 93.3739 37.0185ZM100.444 51.3978C98.3971 50.2051 95.5599 48.0183 91.9785 48.0183C87.3739 47.9521 82.4436 51.3978 78.8622 50.8677C83.5134 47.4883 89.7459 45.4341 95.7459 46.2955L95.6529 43.3136C94.2111 41.7895 93.2808 44.1088 92.2111 44.5064C91.6529 44.1751 92.2111 42.0546 91.0948 42.5847C87.0483 42.0546 81.6994 43.91 77.2808 44.9702C67.4204 47.3557 50.1645 50.3376 52.5366 63.9216C55.5134 63.6565 57.6064 59.8133 60.4436 60.9397C58.3041 62.9277 56.2576 64.9819 53.2808 65.8433C53.4204 70.813 53.839 75.319 55.7459 77.572C67.7925 65.3132 83.3738 55.705 100.444 51.3978ZM77.0948 92.0837C85.0948 86.2525 90.3971 80.4876 96.6762 73.9275C99.7925 70.6806 103.979 67.765 104.676 62.994C101.281 58.8856 95.7925 66.1084 92.5832 65.3132C95.2808 62.5301 98.1646 59.9459 102.816 59.6808C101.188 52.6569 95.0483 56.964 91.2808 58.488C85.932 60.6084 81.0018 64.518 77.2343 64.8494C75.7925 67.0361 72.4436 67.9637 70.0715 69.7529C67.3738 71.8733 58.3971 79.8249 58.3506 83.9333C58.3041 88.4393 63.0948 91.8187 63.3273 97.4512C67.0483 99.3728 72.9553 95.1318 77.0948 92.0837ZM63.839 112.758C65.1413 112.824 65.5134 109.312 64.7227 108.252C64.9553 110.373 63.839 110.836 63.839 112.758ZM61.1878 115.939C62.7227 114.481 62.7692 111.101 63.3739 108.385C61.3739 109.909 61.6529 114.613 61.1878 115.939ZM18.1645 214.34C18.2576 215.069 18.118 216.196 18.5832 216.262C18.3506 215.401 19.5599 214.142 18.1645 214.34ZM12.118 253.37C11.9785 250.984 13.1878 247.87 12.5831 246.412C12.5366 248.798 10.8157 252.111 12.118 253.37ZM27.0948 605.562C27.0017 603.839 26.4436 602.778 25.932 601.652C25.8855 603.64 26.4436 604.7 27.0948 605.562ZM29.0483 654C29.4203 653.271 29.0017 650.621 27.8855 650.621C27.8855 652.278 28.6296 652.874 29.0483 654ZM28.4901 658.506C28.4901 660.097 28.5831 661.488 29.2808 661.952C29.6994 660.428 29.2343 659.434 28.4901 658.506ZM29.0948 645.055C28.5831 643.796 28.9552 641.145 27.5599 641.211C27.8855 642.802 27.8855 644.922 29.0948 645.055ZM155.979 473.697C156.769 477.341 156.304 483.239 156.723 486.022C156.909 485.359 157.42 485.028 158.072 484.962C157.048 481.648 157.374 476.281 155.979 473.697ZM154.211 462.432C154.816 465.149 154.351 469.853 156.258 471.709C155.978 467.932 156.444 463.028 154.211 462.432ZM151.932 446.197C152.723 451.366 152.955 457.396 154.165 461.902C155.002 458.589 153.374 452.028 152.676 448.649C152.537 447.854 153.234 444.938 151.932 446.197ZM139.513 501.991C144.304 497.353 149.281 492.913 154.025 488.142C152.583 482.642 147.839 482.178 146.025 477.275C149.653 478.136 151.746 481.516 154.583 483.636C155.792 474.161 146.351 474.426 146.397 466.872C148.072 468.064 148.816 470.649 151.048 471.046C151.885 471.974 153.839 476.148 154.304 474.293C153.606 471.245 153.002 467.998 152.583 464.486C149.467 461.902 145.885 457.263 144.909 453.089C147.885 453.486 149.932 460.709 151.746 459.583C152.211 447.523 144.909 445.137 142.723 438.908C143.374 459.914 142.676 481.98 139.513 501.991ZM137.42 512.063C140.769 506.497 145.095 502.19 149.095 497.419C149.978 497.419 150.211 498.281 150.816 497.287C157.141 490.793 165.002 481.317 169.56 475.751C164.537 481.317 158.304 487.413 151.699 493.311C147.095 497.419 137.839 505.106 137.42 512.063ZM27.3738 699.192L25.9785 699.259C26.304 700.981 25.5134 701.18 25.7459 702.77C26.8622 702.24 26.4436 699.855 27.3738 699.192ZM53.4203 676.132C55.5599 676.795 57.0483 681.169 58.7692 680.705C57.1878 679.379 55.6064 673.151 53.4203 676.132ZM92.0715 667.121C87.4203 667.651 82.3506 664.47 78.8622 666.524C84.2576 666.392 87.8855 668.38 92.0715 667.121Z" fill="#BFD3B6" fill-opacity="0.6"/>
</svg>
